# xmcd
#
# Track frame offsets: 
#        150
#        13354
#        26544
#        39687
#        53310
#        65320
#        78167
#        88283
#        104540
#        115053
#        132481
#        146746
#
# Disc length: 2172 seconds
#
# Revision: 1
# Processed by: cddbd v1.5.2PL0 Copyright (c) Steve Scherf et al.
# Submitted via: ExactAudioCopyFreeDBPlugin 1.0
#
DISCID=a1087a0c
DTITLE=Holly Golightly and The Brokeoffs - Sunday Run Me Over
DYEAR=2012
DGENRE=Country
TTITLE0=Goddamn Holy Roll
TTITLE1=They Say
TTITLE2=Tank
TTITLE3=I Forgot More
TTITLE4=One For The Road
TTITLE5=Turn Around
TTITLE6=A Whole Lot More...
TTITLE7=Hand In Hand
TTITLE8=The Future's Here
TTITLE9=Hard To Be Humble
TTITLE10=Goodnight
TTITLE11=This Shit Is Gold
EXTD=
EXTT0=
EXTT1=
EXTT2=
EXTT3=
EXTT4=
EXTT5=
EXTT6=
EXTT7=
EXTT8=
EXTT9=
EXTT10=
EXTT11=
PLAYORDER=
